<?xml version="1.0" encoding="UTF-8"?>
<!DOCTYPE svg PUBLIC "-//W3C//DTD SVG 1.1//EN" "http://www.w3.org/Graphics/SVG/1.1/DTD/svg11.dtd">
<!-- Creator: CorelDRAW X7 -->
<svg xmlns="http://www.w3.org/2000/svg" xml:space="preserve" width="213.078mm" height="197.38mm" version="1.1" style="shape-rendering:geometricPrecision; text-rendering:geometricPrecision; image-rendering:optimizeQuality; fill-rule:evenodd; clip-rule:evenodd"
viewBox="0 0 21308 19738"
 xmlns:xlink="http://www.w3.org/1999/xlink">
 <defs>
  <style type="text/css">
   <![CDATA[
    .fil0 {fill:#EDEDED}
   ]]>
  </style>
 </defs>
 <g id="Слой_x0020_1">
  <metadata id="CorelCorpID_0Corel-Layer"/>
  <path class="fil0" d="M7702 9028c-10,-15 -16,-33 -16,-52l0 -2081c0,-49 41,-90 90,-90l7240 0 0 -2641c-92,-7 -1507,-10 -1602,-10l-6157 0c-1221,0 -2046,722 -2046,1439l0 3692c0,1020 1259,1614 2046,1614l5568 0c10,15 16,32 16,52l0 2080c0,50 -40,91 -90,91l-7636 0 0 2641c92,6 1904,10 1998,10l6157 0c1221,0 2221,-586 2221,-1303l0 -4139c0,-1007 -1463,-1303 -2221,-1303l-5568 0zm-7702 -8783l0 0c2038,2257 17779,2257 21308,0 -3529,2257 -3529,16617 0,19438 -3529,-2821 -19270,-2821 -21308,0 2038,-2821 2038,-17181 0,-19438z"/>
 </g>
</svg>
