<?xml version="1.0" encoding="UTF-8"?>
<!DOCTYPE svg PUBLIC "-//W3C//DTD SVG 1.1//EN" "http://www.w3.org/Graphics/SVG/1.1/DTD/svg11.dtd">
<!-- Creator: CorelDRAW X7 -->
<svg xmlns="http://www.w3.org/2000/svg" xml:space="preserve" width="92.78mm" height="20.814mm" version="1.1" style="shape-rendering:geometricPrecision; text-rendering:geometricPrecision; image-rendering:optimizeQuality; fill-rule:evenodd; clip-rule:evenodd"
viewBox="0 0 9278 2081"
 xmlns:xlink="http://www.w3.org/1999/xlink">
 <defs>
  <style type="text/css">
   <![CDATA[
    .fil0 {fill:#DC2A1B}
   ]]>
  </style>
 </defs>
 <g id="Слой_x0020_1">
  <metadata id="CorelCorpID_0Corel-Layer"/>
  <polygon class="fil0" points="7914,731 8161,731 8161,1721 7914,1721 "/>
  <path class="fil0" d="M7098 1300l453 0 0 413 249 0 -2 -788c0,-107 -90,-194 -200,-194l-550 0c-110,0 -199,87 -199,194l0 788 249 0 0 -413zm-16 -384l0 0 476 0 0 237 -476 0 0 -237z"/>
  <polygon class="fil0" points="5715,728 5951,728 5951,1150 6111,1150 6430,732 6726,732 6330,1211 6751,1722 6437,1722 6090,1293 5951,1293 5951,1718 5715,1718 "/>
  <path class="fil0" d="M4680 721l0 997 237 0 0 -358 517 0c100,0 181,-82 181,-181l0 -274c0,-100 -81,-182 -181,-182l-754 -2zm242 197l0 0 452 0 0 292 -452 0 0 -292z"/>
  <polygon class="fil0" points="3743,731 3822,731 3989,731 4565,731 4565,933 3989,933 3989,1136 4565,1136 4565,1314 3989,1314 3989,1512 4565,1512 4565,1714 3989,1714 3989,1718 3743,1718 "/>
  <polygon class="fil0" points="2793,731 2872,731 3040,731 3615,731 3615,933 3040,933 3040,1136 3615,1136 3615,1314 3040,1314 3040,1512 3615,1512 3615,1714 3040,1714 3040,1718 2793,1718 "/>
  <polygon class="fil0" points="1888,728 2145,728 2145,1540 2669,1540 2669,1711 2145,1711 1899,1711 1888,1711 "/>
  <path class="fil0" d="M8544 88c-92,0 -167,75 -167,167l0 568c0,91 75,166 167,166l568 0c91,0 166,-75 166,-166l0 -568c0,-92 -75,-167 -166,-167l-568 0zm63 102l0 0c-71,0 -128,58 -128,129l0 440c0,71 57,129 128,129l441 0c71,0 128,-58 128,-129l0 -440c0,-71 -57,-129 -128,-129l-441 0zm8 100l0 0 409 0 0 74 -272 0 0 133 272 0 0 72 -272 0 0 201 -137 0 0 -480z"/>
  <path class="fil0" d="M8017 192c69,0 95,69 95,122 0,72 -41,124 -96,124 -57,0 -97,-52 -97,-122 0,-61 30,-124 98,-124zm1 -43l0 0c-88,0 -157,62 -157,169 0,100 66,164 152,164 77,0 159,-52 159,-169 0,-98 -62,-164 -154,-164zm-495 7l0 0 0 318 57 0 0 -144 151 0 0 144 58 0 0 -318 -58 0 0 128 -151 0 0 -128 -57 0zm-360 0l0 0 0 318 58 0 0 -144 151 0 0 144 57 0 0 -318 -57 0 0 128 -151 0 0 -128 -58 0zm-295 128l0 0c5,-40 31,-94 89,-94 65,0 81,57 80,94l-169 0zm223 42l0 0c1,-6 2,-16 2,-27 0,-59 -28,-150 -131,-150 -93,0 -150,75 -150,171 0,97 59,161 157,161 51,0 85,-10 106,-20l-10 -41c-22,9 -47,16 -88,16 -58,0 -108,-32 -110,-110l224 0zm-617 -170l0 0 0 318 244 0 3 102 45 0 3 -145 -33 0 0 -275 -57 0 0 273 -147 0 0 -273 -58 0zm-76 263l0 0c-16,8 -38,16 -71,16 -63,0 -110,-46 -110,-119 0,-67 39,-121 112,-121 32,0 53,8 68,16l13 -45c-16,-8 -47,-17 -81,-17 -104,0 -171,72 -171,170 0,97 63,162 159,162 42,0 76,-10 91,-19l-10 -43zm-514 -135l0 0c5,-40 31,-94 89,-94 65,0 81,57 81,94l-170 0zm224 42l0 0c0,-6 1,-16 1,-27 0,-59 -27,-150 -131,-150 -93,0 -149,75 -149,171 0,97 58,161 156,161 51,0 86,-10 106,-20l-10 -41c-21,9 -46,16 -88,16 -58,0 -108,-32 -109,-110l224 0zm-388 -8l0 0c0,58 -24,120 -88,120 -63,0 -88,-75 -88,-128 0,-26 5,-49 15,-68 13,-25 38,-43 72,-43 68,0 89,67 89,119zm27 -318l0 0c-21,8 -53,13 -78,17 -62,11 -106,31 -137,75 -34,45 -50,104 -50,176 0,106 37,214 149,214 93,0 147,-65 147,-169 0,-101 -57,-157 -135,-157 -46,0 -90,26 -110,72l-3 0c3,-34 15,-77 35,-106 25,-34 62,-51 114,-60 20,-3 49,-8 66,-14l2 -48zm-610 192l0 0c68,0 95,69 95,122 0,72 -41,124 -96,124 -57,0 -97,-52 -97,-122 0,-61 30,-124 98,-124zm1 -43l0 0c-88,0 -158,62 -158,169 0,100 67,164 153,164 77,0 159,-52 159,-169 0,-98 -62,-164 -154,-164zm-410 179l0 0 42 0c55,0 101,10 101,55 0,47 -58,56 -97,56 -18,0 -30,-1 -46,-3l0 -108zm0 -133l0 0c14,-1 26,-2 45,-2 58,0 86,15 86,47 0,37 -44,50 -87,50l-44 0 0 -95zm-55 279l0 0c17,2 54,4 89,4 63,0 168,-10 168,-94 0,-46 -34,-72 -81,-79l0 -1c37,-8 67,-32 67,-72 0,-71 -88,-79 -142,-79 -37,0 -79,3 -101,7l0 314zm-305 -318l0 0 0 46 99 0 0 272 57 0 0 -272 100 0 0 -46 -256 0zm-48 263l0 0c-16,8 -38,16 -71,16 -63,0 -110,-46 -110,-119 0,-67 39,-121 112,-121 32,0 54,8 67,16l14 -45c-16,-8 -46,-17 -81,-17 -104,0 -171,72 -171,170 0,97 63,162 159,162 43,0 76,-10 91,-19l-10 -43zm-514 -135l0 0c5,-40 31,-94 89,-94 66,0 81,57 80,94l-169 0zm223 42l0 0c1,-6 3,-16 3,-27 0,-59 -28,-150 -132,-150 -93,0 -149,75 -149,171 0,97 58,161 156,161 51,0 86,-10 106,-20l-10 -41c-22,9 -47,16 -88,16 -58,0 -108,-32 -109,-110l223 0zm-600 -170l0 0 0 111c0,73 44,104 105,104 30,0 65,-10 86,-24l2 0 0 127 57 0 0 -318 -57 0 0 150c-18,13 -44,22 -69,22 -51,0 -66,-27 -66,-67l0 -105 -58 0zm-134 211l0 0c0,6 -2,13 -4,19 -9,26 -35,53 -77,53 -30,0 -54,-18 -54,-56 0,-61 71,-73 135,-71l0 55zm61 107l0 0c-4,-21 -5,-48 -5,-76l0 -119c0,-64 -24,-130 -122,-130 -40,0 -78,11 -104,28l13 38c22,-14 53,-23 83,-23 65,0 72,47 72,73l0 7c-123,-1 -191,41 -191,118 0,46 33,92 97,92 45,0 80,-23 98,-48l1 0 5 40 53 0zm-551 -318l0 0 0 318 57 0 0 -140 11 0c54,0 84,24 106,75 10,27 21,52 29,65l61 0c-15,-25 -26,-56 -34,-77 -25,-58 -56,-92 -108,-97l139 -144 -70 0 -120 138 -14 0 0 -138 -57 0z"/>
  <path class="fil0" d="M688 1130c-1,-1 -2,-3 -2,-4l0 -186c0,-4 4,-8 9,-8l646 0 0 -236c-8,0 -135,-1 -143,-1l-550 0c-109,0 -182,65 -182,129l0 329c0,91 112,145 182,145l497 0c1,1 2,2 2,4l0 186c0,4 -4,8 -8,8l-682 0 0 235c8,1 170,1 178,1l550 0c109,0 199,-52 199,-116l0 -369c0,-90 -131,-117 -199,-117l-497 0zm-688 -784l0 0c182,202 1588,202 1903,0 -315,202 -315,1484 0,1735 -315,-251 -1721,-251 -1903,0 182,-251 182,-1533 0,-1735z"/>
 </g>
</svg>
