<?xml version="1.0" encoding="UTF-8"?>
<!DOCTYPE svg PUBLIC "-//W3C//DTD SVG 1.1//EN" "http://www.w3.org/Graphics/SVG/1.1/DTD/svg11.dtd">
<!-- Creator: CorelDRAW X7 -->
<svg xmlns="http://www.w3.org/2000/svg" xml:space="preserve" width="13.053mm" height="10.231mm" version="1.1" style="shape-rendering:geometricPrecision; text-rendering:geometricPrecision; image-rendering:optimizeQuality; fill-rule:evenodd; clip-rule:evenodd"
viewBox="0 0 1305 1023"
 xmlns:xlink="http://www.w3.org/1999/xlink">
 <defs>
  <style type="text/css">
   <![CDATA[
    .fil0 {fill:#878787}
   ]]>
  </style>
 </defs>
 <g id="Слой_x0020_1">
  <metadata id="CorelCorpID_0Corel-Layer"/>
  <path class="fil0" d="M1193 90c-10,10 -15,13 -18,18 -11,14 -21,29 -31,44 -85,137 -110,283 -61,439 33,108 86,206 146,300 10,14 19,29 31,42 3,4 11,3 17,4 0,-6 2,-13 1,-19 -1,-4 -4,-8 -7,-12 -56,-76 -99,-161 -138,-248 -81,-186 -64,-361 54,-525 4,-6 10,-11 11,-18 2,-6 -2,-13 -5,-25zm-330 894l0 0c-66,0 -132,-2 -197,1 -70,2 -140,13 -210,16 -86,4 -171,5 -257,4 -50,-1 -101,-10 -152,-15 -7,-1 -13,-3 -20,-6 -28,-12 -35,-33 -17,-59 14,-22 30,-44 48,-63 53,-58 81,-125 81,-207 0,-89 6,-179 10,-268 3,-92 -19,-179 -48,-265 -6,-20 -14,-40 -17,-61 -5,-34 10,-50 41,-46 35,5 69,15 103,24 124,33 249,40 377,31 129,-9 255,-42 382,-61 77,-12 154,-18 230,-26 17,-2 34,0 51,4 28,6 35,21 21,48 -6,11 -13,22 -20,32 -103,125 -124,269 -85,423 29,117 66,232 99,348 8,26 17,52 21,78 7,47 -13,73 -59,73 -37,0 -74,-5 -112,-5 -90,-1 -180,-1 -270,-1l0 1z"/>
 </g>
</svg>
