<?xml version="1.0" encoding="UTF-8"?>
<!DOCTYPE svg PUBLIC "-//W3C//DTD SVG 1.1//EN" "http://www.w3.org/Graphics/SVG/1.1/DTD/svg11.dtd">
<!-- Creator: CorelDRAW X7 -->
<svg xmlns="http://www.w3.org/2000/svg" xml:space="preserve" width="10.231mm" height="8.115mm" version="1.1" style="shape-rendering:geometricPrecision; text-rendering:geometricPrecision; image-rendering:optimizeQuality; fill-rule:evenodd; clip-rule:evenodd"
viewBox="0 0 1023 812"
 xmlns:xlink="http://www.w3.org/1999/xlink">
 <defs>
  <style type="text/css">
   <![CDATA[
    .fil0 {fill:white}
    .fil1 {fill:white;fill-rule:nonzero}
   ]]>
  </style>
 </defs>
 <g id="Слой_x0020_1">
  <metadata id="CorelCorpID_0Corel-Layer"/>
  <g id="_1926995521008">
   <path class="fil0" d="M583 560c23,-4 47,-9 70,-15 4,-1 7,-7 11,-11 -5,-1 -11,-4 -15,-3 -21,2 -41,9 -62,10 -70,1 -128,-28 -177,-80 -4,-3 -11,-3 -16,-4 1,5 1,12 5,15 50,54 111,84 184,88zm368 -337l0 0c-6,6 -9,8 -12,12 -7,9 -13,18 -19,28 -55,88 -71,182 -39,282 21,70 55,132 93,193 6,9 13,18 20,27 2,2 7,2 11,2 0,-4 1,-8 1,-12 -1,-2 -3,-5 -5,-7 -36,-49 -64,-104 -88,-160 -53,-119 -41,-232 34,-337 3,-4 7,-7 8,-11 0,-4 -2,-9 -4,-17zm-212 575l0 0c-42,0 -84,-2 -126,0 -45,2 -90,9 -135,11 -55,2 -110,3 -164,2 -33,-1 -66,-6 -98,-10 -4,0 -9,-2 -13,-3 -18,-8 -22,-21 -11,-38 9,-15 20,-28 31,-41 34,-37 52,-80 52,-133 0,-57 4,-115 6,-172 2,-59 -12,-115 -30,-170 -5,-13 -9,-26 -11,-40 -3,-21 6,-32 26,-29 22,3 44,10 66,15 80,22 160,26 242,20 83,-6 163,-26 245,-39 49,-7 99,-12 148,-16 10,-1 22,0 32,2 18,4 23,14 13,31 -3,7 -8,14 -13,21 -65,80 -79,172 -54,271 19,75 42,149 64,224 5,16 11,33 13,50 5,30 -8,47 -37,47 -24,0 -48,-3 -72,-4 -58,0 -116,0 -174,0l0 1z"/>
   <path class="fil1" d="M156 660c-37,-3 -76,-6 -114,-10 -9,-2 -19,-5 -28,-9 -14,-7 -18,-18 -9,-33 8,-14 19,-26 28,-39 8,-10 15,-20 24,-29 26,-29 30,-66 32,-103 2,-66 5,-131 6,-197 1,-53 -14,-103 -31,-153 -4,-12 -8,-24 -10,-37 -3,-21 6,-32 26,-29 24,3 47,9 70,16 90,24 180,28 270,15 71,-10 141,-25 212,-35 53,-8 108,-12 162,-17 13,-1 29,-1 36,13 6,14 -5,25 -13,35 -24,35 -48,69 -59,111 -1,4 -7,8 -10,8 -87,19 -174,31 -263,30 -64,-1 -125,-15 -186,-33 -11,-2 -22,-4 -33,-6 -30,-2 -48,19 -41,49 5,27 15,53 22,79 13,41 20,83 19,126 -4,75 -8,150 -12,224 -1,20 -5,22 -23,23l-74 0 -1 1z"/>
  </g>
 </g>
</svg>
