<?xml version="1.0" encoding="UTF-8"?>
<!DOCTYPE svg PUBLIC "-//W3C//DTD SVG 1.1//EN" "http://www.w3.org/Graphics/SVG/1.1/DTD/svg11.dtd">
<!-- Creator: CorelDRAW X7 -->
<svg xmlns="http://www.w3.org/2000/svg" xml:space="preserve" width="80.08mm" height="25.047mm" version="1.1" style="shape-rendering:geometricPrecision; text-rendering:geometricPrecision; image-rendering:optimizeQuality; fill-rule:evenodd; clip-rule:evenodd"
viewBox="0 0 8008 2505"
 xmlns:xlink="http://www.w3.org/1999/xlink">
 <defs>
  <style type="text/css">
   <![CDATA[
    .fil0 {fill:#C199ED}
   ]]>
  </style>
 </defs>
 <g id="Слой_x0020_1">
  <metadata id="CorelCorpID_0Corel-Layer"/>
  <path class="fil0" d="M486 1458c113,0 205,-92 205,-206 0,-113 -92,-205 -205,-205 -114,0 -206,92 -206,205 0,114 92,206 206,206zm-391 -418l0 0 1085 -968c52,-46 120,-72 189,-72l6354 0c158,0 285,127 285,285l0 1935c0,157 -127,285 -285,285l-6354 0c-69,0 -137,-26 -189,-73l-1085 -967c-127,-114 -127,-312 0,-425z"/>
 </g>
</svg>
