<?xml version="1.0" encoding="UTF-8"?>
<!DOCTYPE svg PUBLIC "-//W3C//DTD SVG 1.1//EN" "http://www.w3.org/Graphics/SVG/1.1/DTD/svg11.dtd">
<!-- Creator: CorelDRAW X7 -->
<svg xmlns="http://www.w3.org/2000/svg" xml:space="preserve" width="11.642mm" height="7.408mm" version="1.1" style="shape-rendering:geometricPrecision; text-rendering:geometricPrecision; image-rendering:optimizeQuality; fill-rule:evenodd; clip-rule:evenodd"
viewBox="0 0 1164 741"
 xmlns:xlink="http://www.w3.org/1999/xlink">
 <defs>
  <style type="text/css">
   <![CDATA[
    .fil0 {fill:white}
   ]]>
  </style>
 </defs>
 <g id="Слой_x0020_1">
  <metadata id="CorelCorpID_0Corel-Layer"/>
  <g id="_1926995875520">
   <path class="fil0" d="M133 224c0,-61 49,-111 110,-111l247 0c38,0 72,20 92,50 20,-30 54,-50 92,-50l247 0c61,0 111,50 111,111l0 5 27 0 0 -108c0,-67 -54,-121 -121,-121l-712 0c-67,0 -121,54 -121,121l0 108 28 0 0 -5z"/>
   <path class="fil0" d="M1118 280l-1072 0c-25,0 -46,21 -46,47l0 269c0,25 21,46 46,46l20 0 -23 65c-5,13 2,27 16,32 2,1 5,2 8,2 11,0 21,-7 24,-17l29 -82 924 0 29 82c4,10 14,17 24,17 3,0 6,-1 9,-2 13,-5 20,-19 15,-32l-22 -65 19 0c25,0 46,-21 46,-46l0 -269c0,-26 -21,-47 -46,-47z"/>
   <path class="fil0" d="M674 165c-32,0 -59,26 -59,59l0 5 365 0 0 -5c0,-33 -26,-59 -59,-59l-247 0z"/>
   <path class="fil0" d="M243 165c-33,0 -59,26 -59,59l0 5 365 0 0 -5c0,-33 -27,-59 -59,-59l-247 0z"/>
  </g>
 </g>
</svg>
