<?xml version="1.0" encoding="UTF-8"?>
<!DOCTYPE svg PUBLIC "-//W3C//DTD SVG 1.1//EN" "http://www.w3.org/Graphics/SVG/1.1/DTD/svg11.dtd">
<!-- Creator: CorelDRAW X7 -->
<svg xmlns="http://www.w3.org/2000/svg" xml:space="preserve" width="12.837mm" height="10.7mm" version="1.1" style="shape-rendering:geometricPrecision; text-rendering:geometricPrecision; image-rendering:optimizeQuality; fill-rule:evenodd; clip-rule:evenodd"
viewBox="0 0 1284 1070"
 xmlns:xlink="http://www.w3.org/1999/xlink">
 <defs>
  <style type="text/css">
   <![CDATA[
    .fil0 {fill:#fff}
   ]]>
  </style>
 </defs>
 <g id="Слой_x0020_1">
  <metadata id="CorelCorpID_0Corel-Layer"/>
  <g id="_1926993114432">
   <path class="fil0" d="M443 533c0,-20 7,-36 20,-50 14,-14 31,-21 50,-21 20,0 37,7 51,21 14,14 21,30 21,50 0,19 -7,35 -21,49 -14,14 -31,21 -51,21 -19,0 -36,-7 -50,-21 -13,-14 -20,-30 -20,-49zm212 0l0 0c0,-20 7,-36 21,-50 14,-14 31,-21 51,-21 20,0 37,7 51,21 13,14 20,30 20,50 0,19 -7,35 -20,49 -14,14 -31,21 -51,21 -20,0 -37,-7 -51,-21 -14,-14 -21,-30 -21,-49zm214 0l0 0c0,-20 7,-36 21,-50 14,-14 31,-21 50,-21 20,0 37,7 50,21 14,14 21,30 21,50 0,19 -7,35 -21,49 -13,14 -30,21 -50,21 -19,0 -36,-7 -50,-21 -14,-14 -21,-30 -21,-49zm-462 -118l0 0c-19,0 -36,-6 -50,-20 -14,-14 -21,-31 -21,-50 0,-20 7,-36 21,-50 14,-13 31,-20 50,-20 19,0 36,7 50,20 14,14 21,30 21,50 0,19 -7,36 -21,50 -14,14 -31,20 -50,20zm213 0l0 0c-20,0 -36,-6 -50,-20 -13,-14 -20,-31 -20,-50 0,-20 7,-36 20,-50 14,-13 30,-20 50,-20 20,0 37,7 51,20 14,14 21,30 21,50 0,19 -7,36 -21,50 -14,14 -31,20 -51,20zm214 0l0 0c-20,0 -37,-6 -51,-20 -14,-14 -21,-31 -21,-50 0,-20 7,-36 21,-50 14,-13 31,-20 51,-20 20,0 36,7 51,20 13,14 20,30 20,50 0,19 -7,36 -20,50 -15,14 -31,20 -51,20zm213 0l0 0c-20,0 -36,-6 -51,-20 -13,-14 -20,-31 -20,-50 0,-20 7,-36 20,-50 15,-13 31,-20 51,-20 20,0 37,7 50,20 14,14 20,30 20,50 0,19 -6,36 -20,50 -13,14 -30,20 -50,20zm130 -187l0 0 -100 422 -650 0 -127 -341 -1 0 -30 -81 908 0zm-979 -190l0 0 -186 -44 -19 76 145 34 232 624 2 0 52 141c-21,22 -31,48 -31,77 0,33 12,61 35,84 23,23 51,34 84,34 27,0 51,-8 72,-24 20,-16 34,-37 42,-62l240 0c7,25 21,46 43,62 21,16 45,24 72,24 32,0 60,-11 83,-34 23,-23 35,-51 35,-84 0,-15 -3,-30 -10,-45l0 -1c-21,-47 -57,-70 -108,-70 -52,0 -89,23 -109,70l-252 0c-20,-47 -56,-70 -108,-70 -5,0 -11,1 -18,1l-39 -103 684 0 138 -579 -1038 0 -41 -111z"/>
  </g>
 </g>
</svg>
