<?xml version="1.0" encoding="UTF-8"?>
<!DOCTYPE svg PUBLIC "-//W3C//DTD SVG 1.1//EN" "http://www.w3.org/Graphics/SVG/1.1/DTD/svg11.dtd">
<!-- Creator: CorelDRAW X7 -->
<svg xmlns="http://www.w3.org/2000/svg" xml:space="preserve" width="16.581mm" height="5.646mm" version="1.1" style="shape-rendering:geometricPrecision; text-rendering:geometricPrecision; image-rendering:optimizeQuality; fill-rule:evenodd; clip-rule:evenodd"
viewBox="0 0 1658 565"
 xmlns:xlink="http://www.w3.org/1999/xlink">
 <defs>
  <style type="text/css">
   <![CDATA[
    .fil0 {fill:white}
   ]]>
  </style>
 </defs>
 <g id="Слой_x0020_1">
  <metadata id="CorelCorpID_0Corel-Layer"/>
  <path class="fil0" d="M585 142l6 -14c-7,0 -17,-3 -20,0 -15,15 -33,11 -51,11 -8,0 -16,5 -24,8l24 8 3 1 2 22c5,-3 10,-7 16,-9 14,-3 28,-6 42,-7 9,0 19,4 28,6l4 -8 -30 -18zm344 -55l0 0c-10,-1 -17,-3 -20,-1 -20,18 -44,11 -67,12 -5,0 -10,5 -16,8l2 7 29 1 0 23c4,-1 9,-1 12,-4 17,-19 38,-14 58,-9 6,1 12,0 18,0 -5,-6 -9,-12 -14,-17 -3,-2 -8,-1 -12,-1 -1,-1 -3,-2 -4,-3l14 -16zm553 55l0 0 3 -15c-5,0 -12,-2 -16,0 -16,11 -32,15 -51,12 -9,0 -18,5 -27,7l27 9 1 1 -1 21c4,-1 10,0 12,-2 17,-20 38,-18 59,-11 6,2 11,2 17,3l3 -7 -27 -18zm-1205 28l0 0 -3 -6c-6,1 -13,0 -18,4 -15,11 -31,14 -49,9 -4,-1 -10,-1 -14,0 -5,2 -8,5 -12,8 4,3 7,7 12,7 5,2 11,1 18,1l-2 7c0,2 -2,4 -2,6 0,3 0,8 2,10 1,2 7,1 9,0 20,-22 43,-17 67,-10 4,1 8,-2 12,-3 -1,-4 -2,-11 -5,-12 -8,-4 -18,-6 -26,-8l11 -13zm481 -66l0 0c-8,-1 -15,-4 -17,-2 -22,19 -47,11 -71,12 -1,0 -3,0 -4,1 -2,3 -5,6 -6,9 0,1 4,5 7,6 8,1 15,1 21,1l-3 22c5,0 11,1 13,-2 19,-21 41,-16 64,-9 4,1 9,-1 13,-1 -2,-5 -3,-11 -8,-14 -6,-4 -13,-5 -20,-7l11 -16zm-480 41l0 0 0 19c6,-2 14,-3 19,-7 14,-12 29,-12 45,-7 8,2 16,3 24,5l3 -8 -29 -17 3 -16c-5,0 -13,-2 -16,1 -16,14 -35,13 -53,12 -8,-1 -16,1 -25,2l0 9 29 7zm706 -103l0 0 8 -16 -20 1c-1,0 -1,0 -2,0 -14,12 -28,13 -45,9 -10,-2 -24,-6 -29,13l29 4 0 22c4,0 9,1 11,-2 20,-21 43,-16 66,-8 3,1 8,-1 12,-2 -2,-5 -2,-12 -6,-13 -8,-4 -17,-6 -24,-8zm-270 131l0 0c-11,0 -18,-2 -21,0 -21,18 -45,13 -68,12 -1,0 -2,0 -2,0l-10 8c3,3 6,7 10,8 6,1 13,0 19,0l-3 24 4 5c23,-30 50,-27 78,-16 2,1 8,-1 8,-3 1,-3 0,-9 -3,-10 -8,-4 -17,-7 -25,-10l13 -18zm363 56l0 0c6,0 9,1 10,0 21,-22 46,-24 72,-11 3,2 7,-2 10,-3 -1,-4 -2,-10 -4,-12 -8,-4 -17,-6 -23,-8l5 -17c-6,0 -15,-3 -18,0 -16,16 -36,12 -55,11 -3,0 -5,-1 -8,0 -4,3 -9,6 -13,9 4,2 8,6 12,7 6,1 12,0 18,0l-6 24zm-408 -149l0 0c-1,-5 0,-15 -2,-15 -6,-2 -14,-2 -19,1 -14,12 -30,12 -47,11 -9,0 -18,5 -27,8l27 8 2 1 -3 21c7,-3 12,-6 19,-8 14,-3 28,-7 42,-7 9,-1 18,3 28,6l4 -8 -24 -18zm-15 180l0 0c3,-19 -4,-25 -21,-13 -15,10 -29,10 -45,9 -10,-1 -20,1 -30,2l-1 9 29 7 2 21c5,-3 11,-7 17,-8 13,-4 28,-7 42,-8 9,-1 19,3 29,5l3 -7 -25 -17zm355 -145l0 0c5,0 8,1 9,0 21,-22 45,-23 71,-12 2,2 7,-1 10,-2 -1,-4 -1,-10 -4,-12 -8,-4 -17,-7 -23,-9l6 -16c-7,0 -15,-3 -19,1 -17,13 -35,13 -55,9 -3,-1 -7,-1 -10,0 -4,3 -8,6 -12,9 4,2 9,5 13,7 5,1 11,2 16,3l-2 22zm-241 -13l0 0c17,-8 30,-19 45,-20 15,-3 31,3 47,6l3 -8 -25 -15c-1,-6 0,-15 -2,-17 -5,-2 -14,-2 -17,1 -15,15 -33,11 -51,11 -8,0 -17,5 -25,7l25 9 4 2 -4 24zm265 49l0 0 7 -16 -18 -2c0,0 -1,1 -2,1 -15,14 -32,14 -51,10 -7,-1 -16,4 -25,6l1 8 31 3c-1,3 -1,5 -2,7l-1 16 15 -6c8,-3 15,-9 23,-10 12,0 24,3 36,4 5,1 10,-1 15,-2 -3,-5 -5,-11 -9,-13 -7,-4 -14,-5 -20,-6zm-669 30l0 0 0 23c3,-1 8,-1 10,-3 19,-20 41,-17 64,-9 4,1 10,0 15,-1l2 -7 -30 -15 8 -18c-11,1 -20,0 -23,4 -16,15 -35,9 -53,9 -8,0 -16,3 -24,5l1 9 30 3zm499 -13l0 0 8 -17c-6,0 -14,-4 -17,-1 -19,15 -39,14 -61,11 -5,-1 -12,4 -18,6l1 7 28 4 -4 26c8,-3 14,-4 16,-7 16,-18 35,-13 55,-11 7,1 14,0 22,0 -7,-6 -13,-12 -21,-17 -2,-2 -7,-1 -9,-1zm-428 -30l0 0c5,0 7,2 8,1 24,-19 48,-23 76,-10 2,1 8,-2 8,-3 -1,-5 -2,-11 -5,-12 -8,-5 -17,-7 -25,-9l10 -14c-5,-1 -12,-6 -14,-4 -21,16 -44,16 -68,12 -3,-1 -6,0 -8,2 -2,2 -4,6 -6,9 3,2 6,5 9,5 5,1 11,0 18,0l-3 23zm859 34l0 0 9 -15c-6,-1 -14,-5 -18,-2 -18,14 -38,13 -59,10 -6,-1 -13,4 -20,7l2 7 29 4 -6 19 2 6c28,-21 57,-28 90,-9 0,-28 -19,-23 -29,-27zm-548 77l0 0 2 20c6,-4 12,-8 19,-9 15,-3 32,-5 48,-6 6,0 12,4 22,7 -2,-26 -21,-22 -29,-26l7 -16c-5,-1 -12,-4 -15,-2 -19,16 -41,15 -64,11 -5,-1 -11,3 -17,5l-1 8 28 8zm-362 -19l0 0 9 -15c-5,-1 -10,-5 -12,-4 -23,17 -48,16 -73,12 -1,0 -2,0 -2,1l-9 9c3,2 6,5 9,6 7,1 13,0 18,0l2 25c6,-3 12,-8 18,-9 16,-3 31,-5 47,-6 7,0 13,4 24,7 -3,-25 -21,-22 -31,-26zm907 -115l0 0 0 21c6,-3 12,-7 18,-8 13,-4 26,-7 38,-8 11,0 21,4 32,7l4 -8 -25 -18 -1 -16c-7,0 -15,-1 -19,2 -15,14 -32,10 -49,11 -8,0 -17,4 -25,7l25 9 2 1zm-1098 7l0 0c-11,3 -19,3 -23,7 -15,13 -32,11 -49,10 -9,0 -17,5 -25,7l24 10c1,0 2,2 2,2l0 20c6,-3 12,-6 19,-8 14,-3 28,-6 42,-7 9,-1 19,0 28,0l-24 -23 6 -18zm718 101l0 0c0,3 -1,6 -1,8 0,5 1,10 2,15 4,-3 8,-4 13,-6 7,-4 13,-11 20,-12 14,0 27,4 40,5 5,0 10,-2 15,-3 -3,-4 -5,-10 -10,-13 -5,-3 -12,-4 -16,-5l3 -18c-7,1 -16,-2 -20,1 -15,16 -34,10 -52,11 -5,0 -10,-1 -14,0 -3,1 -6,5 -8,8 2,2 4,7 7,7 7,2 13,1 21,2zm305 -73l0 0 4 -7 -25 -17 -2 -17c-7,1 -16,-1 -20,3 -14,13 -30,11 -46,10 -9,0 -18,2 -28,2l0 9 28 7 0 21c4,0 9,1 11,-1 19,-20 41,-21 65,-11 4,2 9,1 13,1zm24 -86l0 0 5 -16c-6,0 -12,-1 -18,1 -5,1 -8,6 -13,8 -9,1 -19,3 -26,0 -12,-5 -23,-15 -33,-21l6 -12c-5,-1 -10,-2 -15,-2 -3,0 -8,1 -10,3 -11,14 -26,10 -41,9 -9,0 -19,1 -29,2l-1 10 29 6 1 21c6,-3 13,-4 17,-9 15,-12 31,-9 46,-7l-7 13 28 9 -2 19c7,-3 13,-6 19,-7 14,-3 29,-7 44,-8 8,0 17,4 26,6l3 -8 -29 -17zm-703 300l0 0c13,-1 26,0 38,-2 160,-29 319,-57 478,-86 190,-33 379,-66 568,-100 8,-2 14,-10 20,-15 -7,-3 -15,-6 -22,-9 -2,-1 -4,0 -6,0l-315 56 -339 60c-117,21 -234,41 -350,62 -42,8 -83,17 -124,2 -93,-34 -184,-69 -276,-104 -57,-22 -114,-43 -172,-64 -5,-2 -12,0 -17,3 -2,1 -3,10 -1,12 4,5 11,8 17,11 125,47 250,95 376,142 41,15 79,37 125,32zm-48 -110l0 0c20,-34 50,-17 80,-12 -1,-24 -19,-21 -29,-25l7 -17c-6,0 -14,-2 -19,1 -16,12 -33,14 -52,10 -8,-2 -17,4 -25,6l2 7 29 4c-2,11 -12,24 7,26 -20,15 -42,19 -67,14 -3,-1 -7,-1 -10,1 -3,2 -5,5 -7,8 2,2 5,6 8,7 7,1 15,1 19,1l0 23c6,-3 11,-6 17,-8 10,-4 20,-10 30,-11 10,0 21,6 31,8 4,0 8,-3 12,-4 -2,-4 -3,-9 -5,-10 -8,-4 -16,-6 -24,-9 6,-8 16,-17 -4,-20zm-489 11l0 0 0 -73c0,-33 16,-53 47,-57 66,-9 132,-17 199,-26 78,-10 156,-21 234,-32 67,-9 134,-17 201,-26l204 -27c56,-7 112,-15 168,-23 45,-6 86,10 128,21 144,36 288,72 432,108 37,9 46,21 45,60 -1,51 -3,102 -4,153 0,18 -10,23 -24,26 -51,9 -102,19 -153,28 -135,25 -271,50 -406,74 -136,25 -271,48 -407,72 -35,7 -70,13 -105,20 -15,3 -20,-3 -20,-17 1,-45 1,-89 1,-134 0,-6 1,-13 -1,-18 -3,-7 -9,-12 -13,-17 -4,6 -9,11 -9,17 -1,47 -1,93 -1,140 0,33 -2,36 -33,25 -149,-56 -297,-111 -445,-167 -30,-11 -38,-24 -38,-56l0 -71z"/>
 </g>
</svg>
