<?xml version="1.0" encoding="UTF-8"?>
<!DOCTYPE svg PUBLIC "-//W3C//DTD SVG 1.1//EN" "http://www.w3.org/Graphics/SVG/1.1/DTD/svg11.dtd">
<!-- Creator: CorelDRAW X7 -->
<svg xmlns="http://www.w3.org/2000/svg" xml:space="preserve" width="11.43mm" height="14.464mm" version="1.1" style="shape-rendering:geometricPrecision; text-rendering:geometricPrecision; image-rendering:optimizeQuality; fill-rule:evenodd; clip-rule:evenodd"
viewBox="0 0 1143 1446"
 xmlns:xlink="http://www.w3.org/1999/xlink">
 <defs>
  <style type="text/css">
   <![CDATA[
    .fil0 {fill:#E41F26}
   ]]>
  </style>
 </defs>
 <g id="Слой_x0020_1">
  <metadata id="CorelCorpID_0Corel-Layer"/>
  <g id="_2294068625472">
   <path class="fil0" d="M1016 1341c28,-14 51,-28 69,-41 17,-13 29,-26 36,-37 20,-37 14,-92 -18,-164 -33,-73 -69,-121 -110,-145 -15,-9 -33,-11 -54,-7 -21,4 -52,16 -95,38 49,47 87,99 116,159 28,60 47,126 56,197zm-597 -962l0 0c24,-22 43,-40 58,-54 14,-16 24,-28 30,-39 14,-27 4,-67 -33,-122 -36,-54 -80,-96 -133,-127 -30,-17 -58,-23 -84,-17 -26,6 -62,29 -107,67 64,38 119,82 165,131 46,51 81,104 104,161zm498 1064l0 0c-7,-10 -13,-22 -19,-36 18,-5 32,-11 43,-17 10,-7 17,-14 21,-21 7,-12 7,-36 0,-73 -7,-36 -20,-75 -38,-118 -17,-36 -38,-70 -64,-104 -26,-34 -44,-54 -54,-59 -5,-4 -23,-3 -52,2 -29,5 -54,3 -75,-10 -27,-15 -58,-44 -94,-85 -37,-42 -78,-95 -123,-160 -50,-75 -84,-131 -100,-169 -17,-38 -23,-70 -18,-98 1,-6 4,-16 9,-28 18,-42 17,-80 -2,-117 -20,-35 -50,-72 -90,-113 -39,-40 -75,-69 -107,-88 -27,-16 -47,-22 -61,-19 -13,3 -28,17 -43,44 -22,42 -39,79 -49,111 -10,33 -14,60 -11,82 4,26 20,74 49,145 29,70 65,146 108,226 79,148 173,286 283,415 110,129 199,214 268,254 13,7 29,12 47,15 18,3 44,4 77,3 5,14 11,27 18,39l77 -21z"/>
  </g>
 </g>
</svg>
